<?xml version="1.0" encoding="UTF-8" standalone="no"?>
<!DOCTYPE svg PUBLIC "-//W3C//DTD SVG 1.1//EN"
 "http://www.w3.org/Graphics/SVG/1.1/DTD/svg11.dtd">
<!-- Generated by graphviz version 2.38.0 (20140413.2041)
 -->
<!-- Title: hierarchy_of_LIST Pages: 1 -->
<svg width="252pt" height="188pt"
 viewBox="0.00 0.00 251.62 188.00" xmlns="http://www.w3.org/2000/svg" xmlns:xlink="http://www.w3.org/1999/xlink">
<g id="graph0" class="graph" transform="scale(1 1) rotate(0) translate(4 184)">
<title>hierarchy_of_LIST</title>
<polygon fill="white" stroke="none" points="-4,4 -4,-184 247.616,-184 247.616,4 -4,4"/>
<!-- LIST -->
<g id="node1" class="node"><title>LIST</title>
<polygon fill="none" stroke="black" points="154.609,-36 100.609,-36 100.609,-0 154.609,-0 154.609,-36"/>
<text text-anchor="middle" x="127.609" y="-13.8" font-family="Courier,monospace" font-size="14.00">LIST</text>
</g>
<!-- IDL_CONTAINER -->
<g id="node2" class="node"><title>IDL_CONTAINER</title>
<polygon fill="none" stroke="black" points="125.327,-108 -0.109076,-108 -0.109076,-72 125.327,-72 125.327,-108"/>
<text text-anchor="middle" x="62.6089" y="-85.8" font-family="Courier,monospace" font-size="14.00">IDL_CONTAINER</text>
</g>
<!-- IDL_CONTAINER&#45;&gt;LIST -->
<g id="edge1" class="edge"><title>IDL_CONTAINER&#45;&gt;LIST</title>
<path fill="none" stroke="black" d="M78.6763,-71.6966C86.5476,-63.2198 96.1642,-52.8636 104.782,-43.5826"/>
<polygon fill="black" stroke="black" points="107.487,-45.8139 111.726,-36.1043 102.357,-41.0507 107.487,-45.8139"/>
</g>
<!-- COLLECTION -->
<g id="node3" class="node"><title>COLLECTION</title>
<polygon fill="none" stroke="black" points="243.623,-108 143.595,-108 143.595,-72 243.623,-72 243.623,-108"/>
<text text-anchor="middle" x="193.609" y="-85.8" font-family="Courier,monospace" font-size="14.00">COLLECTION</text>
</g>
<!-- COLLECTION&#45;&gt;LIST -->
<g id="edge2" class="edge"><title>COLLECTION&#45;&gt;LIST</title>
<path fill="none" stroke="black" d="M177.294,-71.6966C169.302,-63.2198 159.537,-52.8636 150.787,-43.5826"/>
<polygon fill="black" stroke="black" points="153.143,-40.9792 143.736,-36.1043 148.049,-45.7813 153.143,-40.9792"/>
</g>
<!-- IDL_OBJECT -->
<g id="node4" class="node"><title>IDL_OBJECT</title>
<polygon fill="none" stroke="black" points="243.623,-180 143.595,-180 143.595,-144 243.623,-144 243.623,-180"/>
<text text-anchor="middle" x="193.609" y="-157.8" font-family="Courier,monospace" font-size="14.00">IDL_OBJECT</text>
</g>
<!-- IDL_OBJECT&#45;&gt;COLLECTION -->
<g id="edge3" class="edge"><title>IDL_OBJECT&#45;&gt;COLLECTION</title>
<path fill="none" stroke="black" d="M193.609,-143.697C193.609,-135.983 193.609,-126.712 193.609,-118.112"/>
<polygon fill="black" stroke="black" points="197.109,-118.104 193.609,-108.104 190.109,-118.104 197.109,-118.104"/>
</g>
</g>
</svg>
