<?xml version="1.0" encoding="UTF-8" standalone="no"?>
<!DOCTYPE svg PUBLIC "-//W3C//DTD SVG 1.1//EN"
 "http://www.w3.org/Graphics/SVG/1.1/DTD/svg11.dtd">
<!-- Generated by graphviz version 2.38.0 (20140413.2041)
 -->
<!-- Title: hierarchy_of_object_graphics Pages: 1 -->
<svg width="419pt" height="188pt"
 viewBox="0.00 0.00 419.22 188.00" xmlns="http://www.w3.org/2000/svg" xmlns:xlink="http://www.w3.org/1999/xlink">
<g id="graph0" class="graph" transform="scale(1 1) rotate(0) translate(4 184)">
<title>hierarchy_of_object_graphics</title>
<polygon fill="white" stroke="none" points="-4,4 -4,-184 415.218,-184 415.218,4 -4,4"/>
<!-- 2 -->
<g id="node1" class="node"><title>2</title>
<polygon fill="none" stroke="black" points="260.025,-180 151.193,-180 151.193,-144 260.025,-144 260.025,-180"/>
<text text-anchor="middle" x="205.609" y="-157.8" font-family="Courier,monospace" font-size="14.00">[IDLGRVIEW]</text>
</g>
<!-- 4 -->
<g id="node2" class="node"><title>4</title>
<polygon fill="none" stroke="black" points="289.334,-108 121.884,-108 121.884,-72 289.334,-72 289.334,-108"/>
<text text-anchor="middle" x="205.609" y="-85.8" font-family="Courier,monospace" font-size="14.00">model [IDLGRMODEL]</text>
</g>
<!-- 2&#45;&gt;4 -->
<g id="edge1" class="edge"><title>2&#45;&gt;4</title>
<path fill="none" stroke="black" d="M205.609,-143.697C205.609,-135.983 205.609,-126.712 205.609,-118.112"/>
<polygon fill="black" stroke="black" points="209.109,-118.104 205.609,-108.104 202.109,-118.104 209.109,-118.104"/>
</g>
<!-- 10 -->
<g id="node3" class="node"><title>10</title>
<polygon fill="none" stroke="black" points="125.327,-36 -0.109076,-36 -0.109076,-0 125.327,-0 125.327,-36"/>
<text text-anchor="middle" x="62.6089" y="-13.8" font-family="Courier,monospace" font-size="14.00">x [IDLGRAXIS]</text>
</g>
<!-- 4&#45;&gt;10 -->
<g id="edge2" class="edge"><title>4&#45;&gt;10</title>
<path fill="none" stroke="black" d="M170.627,-71.8761C151.411,-62.4693 127.383,-50.7077 106.872,-40.6672"/>
<polygon fill="black" stroke="black" points="108.246,-37.4428 97.7251,-36.1898 105.168,-43.73 108.246,-37.4428"/>
</g>
<!-- 24 -->
<g id="node4" class="node"><title>24</title>
<polygon fill="none" stroke="black" points="268.327,-36 142.891,-36 142.891,-0 268.327,-0 268.327,-36"/>
<text text-anchor="middle" x="205.609" y="-13.8" font-family="Courier,monospace" font-size="14.00">y [IDLGRAXIS]</text>
</g>
<!-- 4&#45;&gt;24 -->
<g id="edge3" class="edge"><title>4&#45;&gt;24</title>
<path fill="none" stroke="black" d="M205.609,-71.6966C205.609,-63.9827 205.609,-54.7125 205.609,-46.1124"/>
<polygon fill="black" stroke="black" points="209.109,-46.1043 205.609,-36.1043 202.109,-46.1044 209.109,-46.1043"/>
</g>
<!-- 37 -->
<g id="node5" class="node"><title>37</title>
<polygon fill="none" stroke="black" points="411.327,-36 285.891,-36 285.891,-0 411.327,-0 411.327,-36"/>
<text text-anchor="middle" x="348.609" y="-13.8" font-family="Courier,monospace" font-size="14.00">z [IDLGRAXIS]</text>
</g>
<!-- 4&#45;&gt;37 -->
<g id="edge4" class="edge"><title>4&#45;&gt;37</title>
<path fill="none" stroke="black" d="M240.591,-71.8761C259.807,-62.4693 283.835,-50.7077 304.346,-40.6672"/>
<polygon fill="black" stroke="black" points="306.05,-43.73 313.493,-36.1898 302.972,-37.4428 306.05,-43.73"/>
</g>
</g>
</svg>
