<?xml version="1.0" encoding="UTF-8" standalone="no"?>
<!DOCTYPE svg PUBLIC "-//W3C//DTD SVG 1.1//EN"
 "http://www.w3.org/Graphics/SVG/1.1/DTD/svg11.dtd">
<!-- Generated by graphviz version 2.38.0 (20140413.2041)
 -->
<!-- Title: hierarchy_of_widget Pages: 1 -->
<svg width="769pt" height="332pt"
 viewBox="0.00 0.00 769.22 332.00" xmlns="http://www.w3.org/2000/svg" xmlns:xlink="http://www.w3.org/1999/xlink">
<g id="graph0" class="graph" transform="scale(1 1) rotate(0) translate(4 328)">
<title>hierarchy_of_widget</title>
<polygon fill="white" stroke="none" points="-4,4 -4,-328 765.221,-328 765.221,4 -4,4"/>
<!-- 1 -->
<g id="node1" class="node"><title>1</title>
<polygon fill="none" stroke="black" points="470.623,-324 370.595,-324 370.595,-288 470.623,-288 470.623,-324"/>
<text text-anchor="middle" x="420.609" y="-301.8" font-family="Courier,monospace" font-size="14.00">tlb [BASE]</text>
</g>
<!-- 2 -->
<g id="node2" class="node"><title>2</title>
<polygon fill="none" stroke="black" points="299.229,-252 165.989,-252 165.989,-216 299.229,-216 299.229,-252"/>
<text text-anchor="middle" x="232.609" y="-229.8" font-family="Courier,monospace" font-size="14.00">toolbar [BASE]</text>
</g>
<!-- 1&#45;&gt;2 -->
<g id="edge1" class="edge"><title>1&#45;&gt;2</title>
<path fill="none" stroke="black" d="M374.619,-287.876C348.461,-278.137 315.524,-265.872 287.956,-255.608"/>
<polygon fill="black" stroke="black" points="289.042,-252.278 278.45,-252.068 286.6,-258.838 289.042,-252.278"/>
</g>
<!-- 9 -->
<g id="node9" class="node"><title>9</title>
<polygon fill="none" stroke="black" points="508.235,-252 332.983,-252 332.983,-216 508.235,-216 508.235,-252"/>
<text text-anchor="middle" x="420.609" y="-229.8" font-family="Courier,monospace" font-size="14.00">content_base [BASE]</text>
</g>
<!-- 1&#45;&gt;9 -->
<g id="edge8" class="edge"><title>1&#45;&gt;9</title>
<path fill="none" stroke="black" d="M420.609,-287.697C420.609,-279.983 420.609,-270.712 420.609,-262.112"/>
<polygon fill="black" stroke="black" points="424.109,-262.104 420.609,-252.104 417.109,-262.104 424.109,-262.104"/>
</g>
<!-- 16 -->
<g id="node16" class="node"><title>16</title>
<polygon fill="none" stroke="black" points="600.919,-252 526.299,-252 526.299,-216 600.919,-216 600.919,-252"/>
<text text-anchor="middle" x="563.609" y="-229.8" font-family="Courier,monospace" font-size="14.00">[LABEL]</text>
</g>
<!-- 1&#45;&gt;16 -->
<g id="edge15" class="edge"><title>1&#45;&gt;16</title>
<path fill="none" stroke="black" d="M455.591,-287.876C474.807,-278.469 498.835,-266.708 519.346,-256.667"/>
<polygon fill="black" stroke="black" points="521.05,-259.73 528.493,-252.19 517.972,-253.443 521.05,-259.73"/>
</g>
<!-- 3 -->
<g id="node3" class="node"><title>3</title>
<polygon fill="none" stroke="black" points="132.018,-180 65.1994,-180 65.1994,-144 132.018,-144 132.018,-180"/>
<text text-anchor="middle" x="98.6089" y="-157.8" font-family="Courier,monospace" font-size="14.00">[BASE]</text>
</g>
<!-- 2&#45;&gt;3 -->
<g id="edge2" class="edge"><title>2&#45;&gt;3</title>
<path fill="none" stroke="black" d="M199.829,-215.876C181.984,-206.554 159.712,-194.919 140.606,-184.939"/>
<polygon fill="black" stroke="black" points="141.999,-181.718 131.515,-180.19 138.758,-187.922 141.999,-181.718"/>
</g>
<!-- 5 -->
<g id="node5" class="node"><title>5</title>
<polygon fill="none" stroke="black" points="252.018,-180 185.199,-180 185.199,-144 252.018,-144 252.018,-180"/>
<text text-anchor="middle" x="218.609" y="-157.8" font-family="Courier,monospace" font-size="14.00">[BASE]</text>
</g>
<!-- 2&#45;&gt;5 -->
<g id="edge4" class="edge"><title>2&#45;&gt;5</title>
<path fill="none" stroke="black" d="M229.148,-215.697C227.605,-207.983 225.751,-198.712 224.031,-190.112"/>
<polygon fill="black" stroke="black" points="227.423,-189.224 222.03,-180.104 220.559,-190.597 227.423,-189.224"/>
</g>
<!-- 7 -->
<g id="node7" class="node"><title>7</title>
<polygon fill="none" stroke="black" points="336.018,-180 269.199,-180 269.199,-144 336.018,-144 336.018,-180"/>
<text text-anchor="middle" x="302.609" y="-157.8" font-family="Courier,monospace" font-size="14.00">[BASE]</text>
</g>
<!-- 2&#45;&gt;7 -->
<g id="edge6" class="edge"><title>2&#45;&gt;7</title>
<path fill="none" stroke="black" d="M249.912,-215.697C258.474,-207.135 268.953,-196.656 278.304,-187.304"/>
<polygon fill="black" stroke="black" points="280.908,-189.65 285.505,-180.104 275.959,-184.701 280.908,-189.65"/>
</g>
<!-- 4 -->
<g id="node4" class="node"><title>4</title>
<polygon fill="none" stroke="black" points="125.327,-108 -0.109076,-108 -0.109076,-72 125.327,-72 125.327,-108"/>
<text text-anchor="middle" x="62.6089" y="-85.8" font-family="Courier,monospace" font-size="14.00">open [BUTTON]</text>
</g>
<!-- 3&#45;&gt;4 -->
<g id="edge3" class="edge"><title>3&#45;&gt;4</title>
<path fill="none" stroke="black" d="M89.71,-143.697C85.6121,-135.728 80.6601,-126.1 76.1162,-117.264"/>
<polygon fill="black" stroke="black" points="79.0914,-115.396 71.4054,-108.104 72.8664,-118.598 79.0914,-115.396"/>
</g>
<!-- 6 -->
<g id="node6" class="node"><title>6</title>
<polygon fill="none" stroke="black" points="294.031,-108 143.186,-108 143.186,-72 294.031,-72 294.031,-108"/>
<text text-anchor="middle" x="218.609" y="-85.8" font-family="Courier,monospace" font-size="14.00">cmdline [BUTTON]</text>
</g>
<!-- 5&#45;&gt;6 -->
<g id="edge5" class="edge"><title>5&#45;&gt;6</title>
<path fill="none" stroke="black" d="M218.609,-143.697C218.609,-135.983 218.609,-126.712 218.609,-118.112"/>
<polygon fill="black" stroke="black" points="222.109,-118.104 218.609,-108.104 215.109,-118.104 222.109,-118.104"/>
</g>
<!-- 8 -->
<g id="node8" class="node"><title>8</title>
<polygon fill="none" stroke="black" points="470.932,-108 312.286,-108 312.286,-72 470.932,-72 470.932,-108"/>
<text text-anchor="middle" x="391.609" y="-85.8" font-family="Courier,monospace" font-size="14.00">annotate [BUTTON]</text>
</g>
<!-- 7&#45;&gt;8 -->
<g id="edge7" class="edge"><title>7&#45;&gt;8</title>
<path fill="none" stroke="black" d="M324.609,-143.697C335.818,-134.881 349.611,-124.032 361.763,-114.474"/>
<polygon fill="black" stroke="black" points="364.166,-117.038 369.862,-108.104 359.838,-111.535 364.166,-117.038"/>
</g>
<!-- 10 -->
<g id="node10" class="node"><title>10</title>
<polygon fill="none" stroke="black" points="487.229,-180 353.989,-180 353.989,-144 487.229,-144 487.229,-180"/>
<text text-anchor="middle" x="420.609" y="-157.8" font-family="Courier,monospace" font-size="14.00">browser [TREE]</text>
</g>
<!-- 9&#45;&gt;10 -->
<g id="edge9" class="edge"><title>9&#45;&gt;10</title>
<path fill="none" stroke="black" d="M420.609,-215.697C420.609,-207.983 420.609,-198.712 420.609,-190.112"/>
<polygon fill="black" stroke="black" points="424.109,-190.104 420.609,-180.104 417.109,-190.104 424.109,-190.104"/>
</g>
<!-- 11 -->
<g id="node11" class="node"><title>11</title>
<polygon fill="none" stroke="black" points="605.623,-180 505.595,-180 505.595,-144 605.623,-144 605.623,-180"/>
<text text-anchor="middle" x="555.609" y="-157.8" font-family="Courier,monospace" font-size="14.00">tabs [TAB]</text>
</g>
<!-- 9&#45;&gt;11 -->
<g id="edge10" class="edge"><title>9&#45;&gt;11</title>
<path fill="none" stroke="black" d="M453.634,-215.876C471.693,-206.512 494.254,-194.814 513.56,-184.803"/>
<polygon fill="black" stroke="black" points="515.191,-187.9 522.457,-180.19 511.969,-181.686 515.191,-187.9"/>
</g>
<!-- 12 -->
<g id="node12" class="node"><title>12</title>
<polygon fill="none" stroke="black" points="573.018,-108 506.199,-108 506.199,-72 573.018,-72 573.018,-108"/>
<text text-anchor="middle" x="539.609" y="-85.8" font-family="Courier,monospace" font-size="14.00">[BASE]</text>
</g>
<!-- 11&#45;&gt;12 -->
<g id="edge11" class="edge"><title>11&#45;&gt;12</title>
<path fill="none" stroke="black" d="M551.654,-143.697C549.891,-135.983 547.772,-126.712 545.806,-118.112"/>
<polygon fill="black" stroke="black" points="549.159,-117.073 543.518,-108.104 542.335,-118.633 549.159,-117.073"/>
</g>
<!-- 14 -->
<g id="node14" class="node"><title>14</title>
<polygon fill="none" stroke="black" points="693.018,-108 626.199,-108 626.199,-72 693.018,-72 693.018,-108"/>
<text text-anchor="middle" x="659.609" y="-85.8" font-family="Courier,monospace" font-size="14.00">[BASE]</text>
</g>
<!-- 11&#45;&gt;14 -->
<g id="edge13" class="edge"><title>11&#45;&gt;14</title>
<path fill="none" stroke="black" d="M581.05,-143.876C594.396,-134.893 610.933,-123.763 625.387,-114.034"/>
<polygon fill="black" stroke="black" points="627.728,-116.677 634.07,-108.19 623.82,-110.87 627.728,-116.677"/>
</g>
<!-- 13 -->
<g id="node13" class="node"><title>13</title>
<polygon fill="none" stroke="black" points="576.025,-36 467.193,-36 467.193,-0 576.025,-0 576.025,-36"/>
<text text-anchor="middle" x="521.609" y="-13.8" font-family="Courier,monospace" font-size="14.00">draw [DRAW]</text>
</g>
<!-- 12&#45;&gt;13 -->
<g id="edge12" class="edge"><title>12&#45;&gt;13</title>
<path fill="none" stroke="black" d="M535.159,-71.6966C533.154,-63.8979 530.74,-54.5085 528.508,-45.8292"/>
<polygon fill="black" stroke="black" points="531.887,-44.9176 526.007,-36.1043 525.108,-46.6609 531.887,-44.9176"/>
</g>
<!-- 15 -->
<g id="node15" class="node"><title>15</title>
<polygon fill="none" stroke="black" points="761.334,-36 593.884,-36 593.884,-0 761.334,-0 761.334,-36"/>
<text text-anchor="middle" x="677.609" y="-13.8" font-family="Courier,monospace" font-size="14.00">fits_header [TEXT]</text>
</g>
<!-- 14&#45;&gt;15 -->
<g id="edge14" class="edge"><title>14&#45;&gt;15</title>
<path fill="none" stroke="black" d="M664.058,-71.6966C666.064,-63.8979 668.478,-54.5085 670.71,-45.8292"/>
<polygon fill="black" stroke="black" points="674.11,-46.6609 673.211,-36.1043 667.33,-44.9176 674.11,-46.6609"/>
</g>
</g>
</svg>
