<?xml version="1.0" encoding="UTF-8"?>
<svg version="1.1" xmlns="http://www.w3.org/2000/svg" xmlns:xlink="http://www.w3.org/1999/xlink" width="4.00000in" height="4.00000in" viewBox="100.00000 100.00000 200.00000 200.00000">
    <g transform="translate(0, 400.000000) scale(1, -1)">
      <g transform="matrix(-0.000000 1.000000 -1.000000 -0.000000 400.000000 0.000000)">
        <g transform="scale(1, -1) translate(0, -400.000000)">
          <path d="M 110.000 190.000 L  190.000 190.000 L  150.000 110.000 L  110.000 190.000" stroke="rgb(0, 0, 0)" stroke-width="2.777778" stroke-linecap="round" stroke-linejoin="round" fill-opacity="0"/>
          <path d="M 100.000 300.000 L  300.000 300.000 L  300.000 100.000 L  100.000 100.000 L  100.000 300.000" stroke="rgb(0, 0, 0)" stroke-width="0.694444" stroke-linecap="round" stroke-linejoin="round" fill-opacity="0"/>
          <path d="M 210.000 290.000 L  290.000 290.000 L  250.000 210.000 L  210.000 290.000" stroke-width="0.000000" stroke-linecap="round" stroke-linejoin="round" fill-opacity="1" fill="rgb(0, 0, 255)"/>
          <text x="150.000000" y="250.000000" font-family="Helvetica" font-size="8.333333" fill="rgb(0, 0, 0)">Hello</text>
          <path d="M 110.000 275.000 L  110.056 274.913 L  110.111 274.826 L  110.167 274.738 L  110.222 274.651 L  110.278 274.564 L  110.333 274.477 L  110.389 274.391 L  110.444 274.304 L  110.500 274.218 L  110.556 274.132 L  110.611 274.046 L  110.667 273.960 L  110.722 273.875 L  110.778 273.790 L  110.833 273.706 L  110.889 273.622 L  110.944 273.538 L  111.000 273.455 L  111.056 273.372 L  111.111 273.290 L  111.167 273.208 L  111.222 273.127 L  111.278 273.046 L  111.333 272.966 L  111.389 272.887 L  111.444 272.808 L  111.500 272.730 L  111.556 272.653 L  111.611 272.576 L  111.667 272.500 L  111.722 272.425 L  111.778 272.350 L  111.833 272.277 L  111.889 272.204 L  111.944 272.132 L  112.000 272.061 L  112.056 271.991 L  112.111 271.922 L  112.167 271.853 L  112.222 271.786 L  112.278 271.720 L  112.333 271.654 L  112.389 271.590 L  112.444 271.527 L  112.500 271.464 L  112.556 271.403 L  112.611 271.343 L  112.667 271.284 L  112.722 271.226 L  112.778 271.170 L  112.833 271.114 L  112.889 271.060 L  112.944 271.007 L  113.000 270.955 L  113.056 270.904 L  113.111 270.855 L  113.167 270.807 L  113.222 270.760 L  113.278 270.714 L  113.333 270.670 L  113.389 270.627 L  113.444 270.585 L  113.500 270.545 L  113.556 270.506 L  113.611 270.468 L  113.667 270.432 L  113.722 270.397 L  113.778 270.364 L  113.833 270.332 L  113.889 270.302 L  113.944 270.272 L  114.000 270.245 L  114.056 270.218 L  114.111 270.194 L  114.167 270.170 L  114.222 270.149 L  114.278 270.128 L  114.333 270.109 L  114.389 270.092 L  114.444 270.076 L  114.500 270.062 L  114.556 270.049 L  114.611 270.037 L  114.667 270.027 L  114.722 270.019 L  114.778 270.012 L  114.833 270.007 L  114.889 270.003 L  114.944 270.001 L  115.000 270.000 L  115.056 270.001 L  115.111 270.003 L  115.167 270.007 L  115.222 270.012 L  115.278 270.019 L  115.333 270.027 L  115.389 270.037 L  115.444 270.049 L  115.500 270.062 L  115.556 270.076 L  115.611 270.092 L  115.667 270.109 L  115.722 270.128 L  115.778 270.149 L  115.833 270.170 L  115.889 270.194 L  115.944 270.218 L  116.000 270.245 L  116.056 270.272 L  116.111 270.302 L  116.167 270.332 L  116.222 270.364 L  116.278 270.397 L  116.333 270.432 L  116.389 270.468 L  116.444 270.506 L  116.500 270.545 L  116.556 270.585 L  116.611 270.627 L  116.667 270.670 L  116.722 270.714 L  116.778 270.760 L  116.833 270.807 L  116.889 270.855 L  116.944 270.904 L  117.000 270.955 L  117.056 271.007 L  117.111 271.060 L  117.167 271.114 L  117.222 271.170 L  117.278 271.226 L  117.333 271.284 L  117.389 271.343 L  117.444 271.403 L  117.500 271.464 L  117.556 271.527 L  117.611 271.590 L  117.667 271.654 L  117.722 271.720 L  117.778 271.786 L  117.833 271.853 L  117.889 271.922 L  117.944 271.991 L  118.000 272.061 L  118.056 272.132 L  118.111 272.204 L  118.167 272.277 L  118.222 272.350 L  118.278 272.425 L  118.333 272.500 L  118.389 272.576 L  118.444 272.653 L  118.500 272.730 L  118.556 272.808 L  118.611 272.887 L  118.667 272.966 L  118.722 273.046 L  118.778 273.127 L  118.833 273.208 L  118.889 273.290 L  118.944 273.372 L  119.000 273.455 L  119.056 273.538 L  119.111 273.622 L  119.167 273.706 L  119.222 273.790 L  119.278 273.875 L  119.333 273.960 L  119.389 274.046 L  119.444 274.132 L  119.500 274.218 L  119.556 274.304 L  119.611 274.391 L  119.667 274.477 L  119.722 274.564 L  119.778 274.651 L  119.833 274.738 L  119.889 274.826 L  119.944 274.913 L  120.000 275.000 L  120.056 275.087 L  120.111 275.174 L  120.167 275.262 L  120.222 275.349 L  120.278 275.436 L  120.333 275.523 L  120.389 275.609 L  120.444 275.696 L  120.500 275.782 L  120.556 275.868 L  120.611 275.954 L  120.667 276.040 L  120.722 276.125 L  120.778 276.210 L  120.833 276.294 L  120.889 276.378 L  120.944 276.462 L  121.000 276.545 L  121.056 276.628 L  121.111 276.710 L  121.167 276.792 L  121.222 276.873 L  121.278 276.954 L  121.333 277.034 L  121.389 277.113 L  121.444 277.192 L  121.500 277.270 L  121.556 277.347 L  121.611 277.424 L  121.667 277.500 L  121.722 277.575 L  121.778 277.650 L  121.833 277.723 L  121.889 277.796 L  121.944 277.868 L  122.000 277.939 L  122.056 278.009 L  122.111 278.078 L  122.167 278.147 L  122.222 278.214 L  122.278 278.280 L  122.333 278.346 L  122.389 278.410 L  122.444 278.473 L  122.500 278.536 L  122.556 278.597 L  122.611 278.657 L  122.667 278.716 L  122.722 278.774 L  122.778 278.830 L  122.833 278.886 L  122.889 278.940 L  122.944 278.993 L  123.000 279.045 L  123.056 279.096 L  123.111 279.145 L  123.167 279.193 L  123.222 279.240 L  123.278 279.286 L  123.333 279.330 L  123.389 279.373 L  123.444 279.415 L  123.500 279.455 L  123.556 279.494 L  123.611 279.532 L  123.667 279.568 L  123.722 279.603 L  123.778 279.636 L  123.833 279.668 L  123.889 279.698 L  123.944 279.728 L  124.000 279.755 L  124.056 279.782 L  124.111 279.806 L  124.167 279.830 L  124.222 279.851 L  124.278 279.872 L  124.333 279.891 L  124.389 279.908 L  124.444 279.924 L  124.500 279.938 L  124.556 279.951 L  124.611 279.963 L  124.667 279.973 L  124.722 279.981 L  124.778 279.988 L  124.833 279.993 L  124.889 279.997 L  124.944 279.999 L  125.000 280.000 L  125.056 279.999 L  125.111 279.997 L  125.167 279.993 L  125.222 279.988 L  125.278 279.981 L  125.333 279.973 L  125.389 279.963 L  125.444 279.951 L  125.500 279.938 L  125.556 279.924 L  125.611 279.908 L  125.667 279.891 L  125.722 279.872 L  125.778 279.851 L  125.833 279.830 L  125.889 279.806 L  125.944 279.782 L  126.000 279.755 L  126.056 279.728 L  126.111 279.698 L  126.167 279.668 L  126.222 279.636 L  126.278 279.603 L  126.333 279.568 L  126.389 279.532 L  126.444 279.494 L  126.500 279.455 L  126.556 279.415 L  126.611 279.373 L  126.667 279.330 L  126.722 279.286 L  126.778 279.240 L  126.833 279.193 L  126.889 279.145 L  126.944 279.096 L  127.000 279.045 L  127.056 278.993 L  127.111 278.940 L  127.167 278.886 L  127.222 278.830 L  127.278 278.774 L  127.333 278.716 L  127.389 278.657 L  127.444 278.597 L  127.500 278.536 L  127.556 278.473 L  127.611 278.410 L  127.667 278.346 L  127.722 278.280 L  127.778 278.214 L  127.833 278.147 L  127.889 278.078 L  127.944 278.009 L  128.000 277.939 L  128.056 277.868 L  128.111 277.796 L  128.167 277.723 L  128.222 277.650 L  128.278 277.575 L  128.333 277.500 L  128.389 277.424 L  128.444 277.347 L  128.500 277.270 L  128.556 277.192 L  128.611 277.113 L  128.667 277.034 L  128.722 276.954 L  128.778 276.873 L  128.833 276.792 L  128.889 276.710 L  128.944 276.628 L  129.000 276.545 L  129.056 276.462 L  129.111 276.378 L  129.167 276.294 L  129.222 276.210 L  129.278 276.125 L  129.333 276.040 L  129.389 275.954 L  129.444 275.868 L  129.500 275.782 L  129.556 275.696 L  129.611 275.609 L  129.667 275.523 L  129.722 275.436 L  129.778 275.349 L  129.833 275.262 L  129.889 275.174 L  129.944 275.087 L  130.000 275.000 L  130.056 274.913 L  130.111 274.826 L  130.167 274.738 L  130.222 274.651 L  130.278 274.564 L  130.333 274.477 L  130.389 274.391 L  130.444 274.304 L  130.500 274.218 L  130.556 274.132 L  130.611 274.046 L  130.667 273.960 L  130.722 273.875 L  130.778 273.790 L  130.833 273.706 L  130.889 273.622 L  130.944 273.538 L  131.000 273.455 L  131.056 273.372 L  131.111 273.290 L  131.167 273.208 L  131.222 273.127 L  131.278 273.046 L  131.333 272.966 L  131.389 272.887 L  131.444 272.808 L  131.500 272.730 L  131.556 272.653 L  131.611 272.576 L  131.667 272.500 L  131.722 272.425 L  131.778 272.350 L  131.833 272.277 L  131.889 272.204 L  131.944 272.132 L  132.000 272.061 L  132.056 271.991 L  132.111 271.922 L  132.167 271.853 L  132.222 271.786 L  132.278 271.720 L  132.333 271.654 L  132.389 271.590 L  132.444 271.527 L  132.500 271.464 L  132.556 271.403 L  132.611 271.343 L  132.667 271.284 L  132.722 271.226 L  132.778 271.170 L  132.833 271.114 L  132.889 271.060 L  132.944 271.007 L  133.000 270.955 L  133.056 270.904 L  133.111 270.855 L  133.167 270.807 L  133.222 270.760 L  133.278 270.714 L  133.333 270.670 L  133.389 270.627 L  133.444 270.585 L  133.500 270.545 L  133.556 270.506 L  133.611 270.468 L  133.667 270.432 L  133.722 270.397 L  133.778 270.364 L  133.833 270.332 L  133.889 270.302 L  133.944 270.272 L  134.000 270.245 L  134.056 270.218 L  134.111 270.194 L  134.167 270.170 L  134.222 270.149 L  134.278 270.128 L  134.333 270.109 L  134.389 270.092 L  134.444 270.076 L  134.500 270.062 L  134.556 270.049 L  134.611 270.037 L  134.667 270.027 L  134.722 270.019 L  134.778 270.012 L  134.833 270.007 L  134.889 270.003 L  134.944 270.001 L  135.000 270.000 L  135.056 270.001 L  135.111 270.003 L  135.167 270.007 L  135.222 270.012 L  135.278 270.019 L  135.333 270.027 L  135.389 270.037 L  135.444 270.049 L  135.500 270.062 L  135.556 270.076 L  135.611 270.092 L  135.667 270.109 L  135.722 270.128 L  135.778 270.149 L  135.833 270.170 L  135.889 270.194 L  135.944 270.218 L  136.000 270.245 L  136.056 270.272 L  136.111 270.302 L  136.167 270.332 L  136.222 270.364 L  136.278 270.397 L  136.333 270.432 L  136.389 270.468 L  136.444 270.506 L  136.500 270.545 L  136.556 270.585 L  136.611 270.627 L  136.667 270.670 L  136.722 270.714 L  136.778 270.760 L  136.833 270.807 L  136.889 270.855 L  136.944 270.904 L  137.000 270.955 L  137.056 271.007 L  137.111 271.060 L  137.167 271.114 L  137.222 271.170 L  137.278 271.226 L  137.333 271.284 L  137.389 271.343 L  137.444 271.403 L  137.500 271.464 L  137.556 271.527 L  137.611 271.590 L  137.667 271.654 L  137.722 271.720 L  137.778 271.786 L  137.833 271.853 L  137.889 271.922 L  137.944 271.991 L  138.000 272.061 L  138.056 272.132 L  138.111 272.204 L  138.167 272.277 L  138.222 272.350 L  138.278 272.425 L  138.333 272.500 L  138.389 272.576 L  138.444 272.653 L  138.500 272.730 L  138.556 272.808 L  138.611 272.887 L  138.667 272.966 L  138.722 273.046 L  138.778 273.127 L  138.833 273.208 L  138.889 273.290 L  138.944 273.372 L  139.000 273.455 L  139.056 273.538 L  139.111 273.622 L  139.167 273.706 L  139.222 273.790 L  139.278 273.875 L  139.333 273.960 L  139.389 274.046 L  139.444 274.132 L  139.500 274.218 L  139.556 274.304 L  139.611 274.391 L  139.667 274.477 L  139.722 274.564 L  139.778 274.651 L  139.833 274.738 L  139.889 274.826 L  139.944 274.913 L  140.000 275.000 L  140.056 275.087 L  140.111 275.174 L  140.167 275.262 L  140.222 275.349 L  140.278 275.436 L  140.333 275.523 L  140.389 275.609 L  140.444 275.696 L  140.500 275.782 L  140.556 275.868 L  140.611 275.954 L  140.667 276.040 L  140.722 276.125 L  140.778 276.210 L  140.833 276.294 L  140.889 276.378 L  140.944 276.462 L  141.000 276.545 L  141.056 276.628 L  141.111 276.710 L  141.167 276.792 L  141.222 276.873 L  141.278 276.954 L  141.333 277.034 L  141.389 277.113 L  141.444 277.192 L  141.500 277.270 L  141.556 277.347 L  141.611 277.424 L  141.667 277.500 L  141.722 277.575 L  141.778 277.650 L  141.833 277.723 L  141.889 277.796 L  141.944 277.868 L  142.000 277.939 L  142.056 278.009 L  142.111 278.078 L  142.167 278.147 L  142.222 278.214 L  142.278 278.280 L  142.333 278.346 L  142.389 278.410 L  142.444 278.473 L  142.500 278.536 L  142.556 278.597 L  142.611 278.657 L  142.667 278.716 L  142.722 278.774 L  142.778 278.830 L  142.833 278.886 L  142.889 278.940 L  142.944 278.993 L  143.000 279.045 L  143.056 279.096 L  143.111 279.145 L  143.167 279.193 L  143.222 279.240 L  143.278 279.286 L  143.333 279.330 L  143.389 279.373 L  143.444 279.415 L  143.500 279.455 L  143.556 279.494 L  143.611 279.532 L  143.667 279.568 L  143.722 279.603 L  143.778 279.636 L  143.833 279.668 L  143.889 279.698 L  143.944 279.728 L  144.000 279.755 L  144.056 279.782 L  144.111 279.806 L  144.167 279.830 L  144.222 279.851 L  144.278 279.872 L  144.333 279.891 L  144.389 279.908 L  144.444 279.924 L  144.500 279.938 L  144.556 279.951 L  144.611 279.963 L  144.667 279.973 L  144.722 279.981 L  144.778 279.988 L  144.833 279.993 L  144.889 279.997 L  144.944 279.999 L  145.000 280.000 L  145.056 279.999 L  145.111 279.997 L  145.167 279.993 L  145.222 279.988 L  145.278 279.981 L  145.333 279.973 L  145.389 279.963 L  145.444 279.951 L  145.500 279.938 L  145.556 279.924 L  145.611 279.908 L  145.667 279.891 L  145.722 279.872 L  145.778 279.851 L  145.833 279.830 L  145.889 279.806 L  145.944 279.782 L  146.000 279.755 L  146.056 279.728 L  146.111 279.698 L  146.167 279.668 L  146.222 279.636 L  146.278 279.603 L  146.333 279.568 L  146.389 279.532 L  146.444 279.494 L  146.500 279.455 L  146.556 279.415 L  146.611 279.373 L  146.667 279.330 L  146.722 279.286 L  146.778 279.240 L  146.833 279.193 L  146.889 279.145 L  146.944 279.096 L  147.000 279.045 L  147.056 278.993 L  147.111 278.940 L  147.167 278.886 L  147.222 278.830 L  147.278 278.774 L  147.333 278.716 L  147.389 278.657 L  147.444 278.597 L  147.500 278.536 L  147.556 278.473 L  147.611 278.410 L  147.667 278.346 L  147.722 278.280 L  147.778 278.214 L  147.833 278.147 L  147.889 278.078 L  147.944 278.009 L  148.000 277.939 L  148.056 277.868 L  148.111 277.796 L  148.167 277.723 L  148.222 277.650 L  148.278 277.575 L  148.333 277.500 L  148.389 277.424 L  148.444 277.347 L  148.500 277.270 L  148.556 277.192 L  148.611 277.113 L  148.667 277.034 L  148.722 276.954 L  148.778 276.873 L  148.833 276.792 L  148.889 276.710 L  148.944 276.628 L  149.000 276.545 L  149.056 276.462 L  149.111 276.378 L  149.167 276.294 L  149.222 276.210 L  149.278 276.125 L  149.333 276.040 L  149.389 275.954 L  149.444 275.868 L  149.500 275.782 L  149.556 275.696 L  149.611 275.609 L  149.667 275.523 L  149.722 275.436 L  149.778 275.349 L  149.833 275.262 L  149.889 275.174 L  149.944 275.087 L  150.000 275.000 L  150.056 274.913 L  150.111 274.826 L  150.167 274.738 L  150.222 274.651 L  150.278 274.564 L  150.333 274.477 L  150.389 274.391 L  150.444 274.304 L  150.500 274.218 L  150.556 274.132 L  150.611 274.046 L  150.667 273.960 L  150.722 273.875 L  150.778 273.790 L  150.833 273.706 L  150.889 273.622 L  150.944 273.538 L  151.000 273.455 L  151.056 273.372 L  151.111 273.290 L  151.167 273.208 L  151.222 273.127 L  151.278 273.046 L  151.333 272.966 L  151.389 272.887 L  151.444 272.808 L  151.500 272.730 L  151.556 272.653 L  151.611 272.576 L  151.667 272.500 L  151.722 272.425 L  151.778 272.350 L  151.833 272.277 L  151.889 272.204 L  151.944 272.132 L  152.000 272.061 L  152.056 271.991 L  152.111 271.922 L  152.167 271.853 L  152.222 271.786 L  152.278 271.720 L  152.333 271.654 L  152.389 271.590 L  152.444 271.527 L  152.500 271.464 L  152.556 271.403 L  152.611 271.343 L  152.667 271.284 L  152.722 271.226 L  152.778 271.170 L  152.833 271.114 L  152.889 271.060 L  152.944 271.007 L  153.000 270.955 L  153.056 270.904 L  153.111 270.855 L  153.167 270.807 L  153.222 270.760 L  153.278 270.714 L  153.333 270.670 L  153.389 270.627 L  153.444 270.585 L  153.500 270.545 L  153.556 270.506 L  153.611 270.468 L  153.667 270.432 L  153.722 270.397 L  153.778 270.364 L  153.833 270.332 L  153.889 270.302 L  153.944 270.272 L  154.000 270.245 L  154.056 270.218 L  154.111 270.194 L  154.167 270.170 L  154.222 270.149 L  154.278 270.128 L  154.333 270.109 L  154.389 270.092 L  154.444 270.076 L  154.500 270.062 L  154.556 270.049 L  154.611 270.037 L  154.667 270.027 L  154.722 270.019 L  154.778 270.012 L  154.833 270.007 L  154.889 270.003 L  154.944 270.001 L  155.000 270.000 L  155.056 270.001 L  155.111 270.003 L  155.167 270.007 L  155.222 270.012 L  155.278 270.019 L  155.333 270.027 L  155.389 270.037 L  155.444 270.049 L  155.500 270.062 L  155.556 270.076 L  155.611 270.092 L  155.667 270.109 L  155.722 270.128 L  155.778 270.149 L  155.833 270.170 L  155.889 270.194 L  155.944 270.218 L  156.000 270.245 L  156.056 270.272 L  156.111 270.302 L  156.167 270.332 L  156.222 270.364 L  156.278 270.397 L  156.333 270.432 L  156.389 270.468 L  156.444 270.506 L  156.500 270.545 L  156.556 270.585 L  156.611 270.627 L  156.667 270.670 L  156.722 270.714 L  156.778 270.760 L  156.833 270.807 L  156.889 270.855 L  156.944 270.904 L  157.000 270.955 L  157.056 271.007 L  157.111 271.060 L  157.167 271.114 L  157.222 271.170 L  157.278 271.226 L  157.333 271.284 L  157.389 271.343 L  157.444 271.403 L  157.500 271.464 L  157.556 271.527 L  157.611 271.590 L  157.667 271.654 L  157.722 271.720 L  157.778 271.786 L  157.833 271.853 L  157.889 271.922 L  157.944 271.991 L  158.000 272.061 L  158.056 272.132 L  158.111 272.204 L  158.167 272.277 L  158.222 272.350 L  158.278 272.425 L  158.333 272.500 L  158.389 272.576 L  158.444 272.653 L  158.500 272.730 L  158.556 272.808 L  158.611 272.887 L  158.667 272.966 L  158.722 273.046 L  158.778 273.127 L  158.833 273.208 L  158.889 273.290 L  158.944 273.372 L  159.000 273.455 L  159.056 273.538 L  159.111 273.622 L  159.167 273.706 L  159.222 273.790 L  159.278 273.875 L  159.333 273.960 L  159.389 274.046 L  159.444 274.132 L  159.500 274.218 L  159.556 274.304 L  159.611 274.391 L  159.667 274.477 L  159.722 274.564 L  159.778 274.651 L  159.833 274.738 L  159.889 274.826 L  159.944 274.913 L  160.000 275.000 L  160.056 275.087 L  160.111 275.174 L  160.167 275.262 L  160.222 275.349 L  160.278 275.436 L  160.333 275.523 L  160.389 275.609 L  160.444 275.696 L  160.500 275.782 L  160.556 275.868 L  160.611 275.954 L  160.667 276.040 L  160.722 276.125 L  160.778 276.210 L  160.833 276.294 L  160.889 276.378 L  160.944 276.462 L  161.000 276.545 L  161.056 276.628 L  161.111 276.710 L  161.167 276.792 L  161.222 276.873 L  161.278 276.954 L  161.333 277.034 L  161.389 277.113 L  161.444 277.192 L  161.500 277.270 L  161.556 277.347 L  161.611 277.424 L  161.667 277.500 L  161.722 277.575 L  161.778 277.650 L  161.833 277.723 L  161.889 277.796 L  161.944 277.868 L  162.000 277.939 L  162.056 278.009 L  162.111 278.078 L  162.167 278.147 L  162.222 278.214 L  162.278 278.280 L  162.333 278.346 L  162.389 278.410 L  162.444 278.473 L  162.500 278.536 L  162.556 278.597 L  162.611 278.657 L  162.667 278.716 L  162.722 278.774 L  162.778 278.830 L  162.833 278.886 L  162.889 278.940 L  162.944 278.993 L  163.000 279.045 L  163.056 279.096 L  163.111 279.145 L  163.167 279.193 L  163.222 279.240 L  163.278 279.286 L  163.333 279.330 L  163.389 279.373 L  163.444 279.415 L  163.500 279.455 L  163.556 279.494 L  163.611 279.532 L  163.667 279.568 L  163.722 279.603 L  163.778 279.636 L  163.833 279.668 L  163.889 279.698 L  163.944 279.728 L  164.000 279.755 L  164.056 279.782 L  164.111 279.806 L  164.167 279.830 L  164.222 279.851 L  164.278 279.872 L  164.333 279.891 L  164.389 279.908 L  164.444 279.924 L  164.500 279.938 L  164.556 279.951 L  164.611 279.963 L  164.667 279.973 L  164.722 279.981 L  164.778 279.988 L  164.833 279.993 L  164.889 279.997 L  164.944 279.999 L  165.000 280.000 L  165.056 279.999 L  165.111 279.997 L  165.167 279.993 L  165.222 279.988 L  165.278 279.981 L  165.333 279.973 L  165.389 279.963 L  165.444 279.951 L  165.500 279.938 L  165.556 279.924 L  165.611 279.908 L  165.667 279.891 L  165.722 279.872 L  165.778 279.851 L  165.833 279.830 L  165.889 279.806 L  165.944 279.782 L  166.000 279.755 L  166.056 279.728 L  166.111 279.698 L  166.167 279.668 L  166.222 279.636 L  166.278 279.603 L  166.333 279.568 L  166.389 279.532 L  166.444 279.494 L  166.500 279.455 L  166.556 279.415 L  166.611 279.373 L  166.667 279.330 L  166.722 279.286 L  166.778 279.240 L  166.833 279.193 L  166.889 279.145 L  166.944 279.096 L  167.000 279.045 L  167.056 278.993 L  167.111 278.940 L  167.167 278.886 L  167.222 278.830 L  167.278 278.774 L  167.333 278.716 L  167.389 278.657 L  167.444 278.597 L  167.500 278.536 L  167.556 278.473 L  167.611 278.410 L  167.667 278.346 L  167.722 278.280 L  167.778 278.214 L  167.833 278.147 L  167.889 278.078 L  167.944 278.009 L  168.000 277.939 L  168.056 277.868 L  168.111 277.796 L  168.167 277.723 L  168.222 277.650 L  168.278 277.575 L  168.333 277.500 L  168.389 277.424 L  168.444 277.347 L  168.500 277.270 L  168.556 277.192 L  168.611 277.113 L  168.667 277.034 L  168.722 276.954 L  168.778 276.873 L  168.833 276.792 L  168.889 276.710 L  168.944 276.628 L  169.000 276.545 L  169.056 276.462 L  169.111 276.378 L  169.167 276.294 L  169.222 276.210 L  169.278 276.125 L  169.333 276.040 L  169.389 275.954 L  169.444 275.868 L  169.500 275.782 L  169.556 275.696 L  169.611 275.609 L  169.667 275.523 L  169.722 275.436 L  169.778 275.349 L  169.833 275.262 L  169.889 275.174 L  169.944 275.087 L  170.000 275.000 L  170.056 274.913 L  170.111 274.826 L  170.167 274.738 L  170.222 274.651 L  170.278 274.564 L  170.333 274.477 L  170.389 274.391 L  170.444 274.304 L  170.500 274.218 L  170.556 274.132 L  170.611 274.046 L  170.667 273.960 L  170.722 273.875 L  170.778 273.790 L  170.833 273.706 L  170.889 273.622 L  170.944 273.538 L  171.000 273.455 L  171.056 273.372 L  171.111 273.290 L  171.167 273.208 L  171.222 273.127 L  171.278 273.046 L  171.333 272.966 L  171.389 272.887 L  171.444 272.808 L  171.500 272.730 L  171.556 272.653 L  171.611 272.576 L  171.667 272.500 L  171.722 272.425 L  171.778 272.350 L  171.833 272.277 L  171.889 272.204 L  171.944 272.132 L  172.000 272.061 L  172.056 271.991 L  172.111 271.922 L  172.167 271.853 L  172.222 271.786 L  172.278 271.720 L  172.333 271.654 L  172.389 271.590 L  172.444 271.527 L  172.500 271.464 L  172.556 271.403 L  172.611 271.343 L  172.667 271.284 L  172.722 271.226 L  172.778 271.170 L  172.833 271.114 L  172.889 271.060 L  172.944 271.007 L  173.000 270.955 L  173.056 270.904 L  173.111 270.855 L  173.167 270.807 L  173.222 270.760 L  173.278 270.714 L  173.333 270.670 L  173.389 270.627 L  173.444 270.585 L  173.500 270.545 L  173.556 270.506 L  173.611 270.468 L  173.667 270.432 L  173.722 270.397 L  173.778 270.364 L  173.833 270.332 L  173.889 270.302 L  173.944 270.272 L  174.000 270.245 L  174.056 270.218 L  174.111 270.194 L  174.167 270.170 L  174.222 270.149 L  174.278 270.128 L  174.333 270.109 L  174.389 270.092 L  174.444 270.076 L  174.500 270.062 L  174.556 270.049 L  174.611 270.037 L  174.667 270.027 L  174.722 270.019 L  174.778 270.012 L  174.833 270.007 L  174.889 270.003 L  174.944 270.001 L  175.000 270.000 L  175.056 270.001 L  175.111 270.003 L  175.167 270.007 L  175.222 270.012 L  175.278 270.019 L  175.333 270.027 L  175.389 270.037 L  175.444 270.049 L  175.500 270.062 L  175.556 270.076 L  175.611 270.092 L  175.667 270.109 L  175.722 270.128 L  175.778 270.149 L  175.833 270.170 L  175.889 270.194 L  175.944 270.218 L  176.000 270.245 L  176.056 270.272 L  176.111 270.302 L  176.167 270.332 L  176.222 270.364 L  176.278 270.397 L  176.333 270.432 L  176.389 270.468 L  176.444 270.506 L  176.500 270.545 L  176.556 270.585 L  176.611 270.627 L  176.667 270.670 L  176.722 270.714 L  176.778 270.760 L  176.833 270.807 L  176.889 270.855 L  176.944 270.904 L  177.000 270.955 L  177.056 271.007 L  177.111 271.060 L  177.167 271.114 L  177.222 271.170 L  177.278 271.226 L  177.333 271.284 L  177.389 271.343 L  177.444 271.403 L  177.500 271.464 L  177.556 271.527 L  177.611 271.590 L  177.667 271.654 L  177.722 271.720 L  177.778 271.786 L  177.833 271.853 L  177.889 271.922 L  177.944 271.991 L  178.000 272.061 L  178.056 272.132 L  178.111 272.204 L  178.167 272.277 L  178.222 272.350 L  178.278 272.425 L  178.333 272.500 L  178.389 272.576 L  178.444 272.653 L  178.500 272.730 L  178.556 272.808 L  178.611 272.887 L  178.667 272.966 L  178.722 273.046 L  178.778 273.127 L  178.833 273.208 L  178.889 273.290 L  178.944 273.372 L  179.000 273.455 L  179.056 273.538 L  179.111 273.622 L  179.167 273.706 L  179.222 273.790 L  179.278 273.875 L  179.333 273.960 L  179.389 274.046 L  179.444 274.132 L  179.500 274.218 L  179.556 274.304 L  179.611 274.391 L  179.667 274.477 L  179.722 274.564 L  179.778 274.651 L  179.833 274.738 L  179.889 274.826 L  179.944 274.913 L  180.000 275.000 L  180.056 275.087 L  180.111 275.174 L  180.167 275.262 L  180.222 275.349 L  180.278 275.436 L  180.333 275.523 L  180.389 275.609 L  180.444 275.696 L  180.500 275.782 L  180.556 275.868 L  180.611 275.954 L  180.667 276.040 L  180.722 276.125 L  180.778 276.210 L  180.833 276.294 L  180.889 276.378 L  180.944 276.462 L  181.000 276.545 L  181.056 276.628 L  181.111 276.710 L  181.167 276.792 L  181.222 276.873 L  181.278 276.954 L  181.333 277.034 L  181.389 277.113 L  181.444 277.192 L  181.500 277.270 L  181.556 277.347 L  181.611 277.424 L  181.667 277.500 L  181.722 277.575 L  181.778 277.650 L  181.833 277.723 L  181.889 277.796 L  181.944 277.868 L  182.000 277.939 L  182.056 278.009 L  182.111 278.078 L  182.167 278.147 L  182.222 278.214 L  182.278 278.280 L  182.333 278.346 L  182.389 278.410 L  182.444 278.473 L  182.500 278.536 L  182.556 278.597 L  182.611 278.657 L  182.667 278.716 L  182.722 278.774 L  182.778 278.830 L  182.833 278.886 L  182.889 278.940 L  182.944 278.993 L  183.000 279.045 L  183.056 279.096 L  183.111 279.145 L  183.167 279.193 L  183.222 279.240 L  183.278 279.286 L  183.333 279.330 L  183.389 279.373 L  183.444 279.415 L  183.500 279.455 L  183.556 279.494 L  183.611 279.532 L  183.667 279.568 L  183.722 279.603 L  183.778 279.636 L  183.833 279.668 L  183.889 279.698 L  183.944 279.728 L  184.000 279.755 L  184.056 279.782 L  184.111 279.806 L  184.167 279.830 L  184.222 279.851 L  184.278 279.872 L  184.333 279.891 L  184.389 279.908 L  184.444 279.924 L  184.500 279.938 L  184.556 279.951 L  184.611 279.963 L  184.667 279.973 L  184.722 279.981 L  184.778 279.988 L  184.833 279.993 L  184.889 279.997 L  184.944 279.999 L  185.000 280.000 L  185.056 279.999 L  185.111 279.997 L  185.167 279.993 L  185.222 279.988 L  185.278 279.981 L  185.333 279.973 L  185.389 279.963 L  185.444 279.951 L  185.500 279.938 L  185.556 279.924 L  185.611 279.908 L  185.667 279.891 L  185.722 279.872 L  185.778 279.851 L  185.833 279.830 L  185.889 279.806 L  185.944 279.782 L  186.000 279.755 L  186.056 279.728 L  186.111 279.698 L  186.167 279.668 L  186.222 279.636 L  186.278 279.603 L  186.333 279.568 L  186.389 279.532 L  186.444 279.494 L  186.500 279.455 L  186.556 279.415 L  186.611 279.373 L  186.667 279.330 L  186.722 279.286 L  186.778 279.240 L  186.833 279.193 L  186.889 279.145 L  186.944 279.096 L  187.000 279.045 L  187.056 278.993 L  187.111 278.940 L  187.167 278.886 L  187.222 278.830 L  187.278 278.774 L  187.333 278.716 L  187.389 278.657 L  187.444 278.597 L  187.500 278.536 L  187.556 278.473 L  187.611 278.410 L  187.667 278.346 L  187.722 278.280 L  187.778 278.214 L  187.833 278.147 L  187.889 278.078 L  187.944 278.009 L  188.000 277.939 L  188.056 277.868 L  188.111 277.796 L  188.167 277.723 L  188.222 277.650 L  188.278 277.575 L  188.333 277.500 L  188.389 277.424 L  188.444 277.347 L  188.500 277.270 L  188.556 277.192 L  188.611 277.113 L  188.667 277.034 L  188.722 276.954 L  188.778 276.873 L  188.833 276.792 L  188.889 276.710 L  188.944 276.628 L  189.000 276.545 L  189.056 276.462 L  189.111 276.378 L  189.167 276.294 L  189.222 276.210 L  189.278 276.125 L  189.333 276.040 L  189.389 275.954 L  189.444 275.868 L  189.500 275.782 L  189.556 275.696 L  189.611 275.609 L  189.667 275.523 L  189.722 275.436 L  189.778 275.349 L  189.833 275.262 L  189.889 275.174 L  189.944 275.087" stroke="rgb(255, 0, 0)" stroke-width="1.388889" stroke-linecap="round" stroke-linejoin="round" fill-opacity="0"/>
          <image x="200.000000" y="100.000006" width="99.999994" height="99.999994" xlink:href="./image-ali-0.png"/>
        </g>
      </g>
    </g>
</svg>
